# xmcd CD database file
#
# Track frame offsets:
#	150
#	12426
#	33438
#	46687
#	57762
#	70908
#	81846
#	93489
#	107228
#	120789
#	133413
#	149811
#	162424
#	177208
#	188081
#	199115
#
# Disc length: 2795 seconds
#
# Revision: 0
# Processed by: cddbd v1.5.2PL0 Copyright (c) Steve Scherf et al.
# Submitted via: CDex 2.21
#
DISCID=e00ae910
DTITLE=Tanya Tucker - Would You Lay With Me
DYEAR=1978
DGENRE=Country
TTITLE0=Would You Lay With Me
TTITLE1=How Can I Tell Him
TTITLE2=Let Me Be There
TTITLE3=Bed Of Roses
TTITLE4=The Man That Turned My Mama On
TTITLE5=Pass me by
TTITLE6=The Chokin' Kind
TTITLE7=Teach Me the Words to Your Song
TTITLE8=I Beleive The South Will Rise a
TTITLE9=Old Dan Tucker's Daughter
TTITLE10=No Man's Land
TTITLE11=Why Me, Lord
TTITLE12=The Baptism Of Jesse Taylor
TTITLE13=What If We Were Running Out Of 
TTITLE14=New York City Song
TTITLE15=If You Touch Me
EXTD=YEAR: 1978
EXTT0=
EXTT1=
EXTT2=
EXTT3=
EXTT4=
EXTT5=
EXTT6=
EXTT7=
EXTT8=
EXTT9=
EXTT10=
EXTT11=
EXTT12=
EXTT13=
EXTT14=
EXTT15=
PLAYORDER=
